<?xml version="1.0" encoding="iso-8859-1"?>
<!-- Generator: Adobe Illustrator 19.0.0, SVG Export Plug-In . SVG Version: 6.00 Build 0)  -->
<svg version="1.1" id="Layer_1" xmlns="http://www.w3.org/2000/svg" xmlns:xlink="http://www.w3.org/1999/xlink" x="0px" y="0px"
	 viewBox="0 0 511.999 511.999" style="enable-background:new 0 0 511.999 511.999;" xml:space="preserve">
<g>
	<g>
		<path d="M400.682,457.2c-2.563-3.82-7.736-4.841-11.556-2.279c-39.43,26.443-85.465,40.42-133.126,40.42
			c-63.931,0-124.035-24.896-169.241-70.102c-45.205-45.205-70.101-105.309-70.101-169.24c0-64.757,25.464-125.416,71.703-170.803
			c3.283-3.223,3.332-8.495,0.11-11.778c-3.223-3.283-8.496-3.332-11.778-0.109C27.237,121.854,0,186.735,0,255.999
			c0,68.381,26.629,132.667,74.98,181.019c48.352,48.352,112.639,74.98,181.019,74.98c50.976,0,100.219-14.953,142.404-43.243
			C402.223,466.194,403.244,461.02,400.682,457.2z"/>
	</g>
</g>
<g>
	<g>
		<path d="M437.017,74.981C388.667,26.629,324.38,0,255.999,0c-55.688,0-108.637,17.574-153.12,50.823
			c-3.685,2.754-4.439,7.974-1.685,11.658c2.754,3.685,7.974,4.439,11.658,1.685c41.581-31.08,91.081-47.508,143.147-47.508
			c63.931,0,124.035,24.896,169.24,70.102c45.206,45.206,70.102,105.31,70.102,169.241c0,68.362-29.358,133.624-80.544,179.056
			c-3.44,3.054-3.754,8.318-0.701,11.758c1.646,1.855,3.933,2.8,6.232,2.8c1.966,0,3.939-0.692,5.526-2.1
			c54.747-48.59,86.145-118.394,86.145-191.515C511.999,187.62,485.37,123.332,437.017,74.981z"/>
	</g>
</g>
<g>
	<g>
		<path d="M383.813,128.187c-21.443-21.443-48.895-33.741-75.318-33.741c-20.225,0-38.75,7.385-52.159,20.796
			c-32.112,32.112-26.425,88.107,12.945,127.477c21.443,21.443,48.895,33.742,75.318,33.742c20.225,0,38.748-7.386,52.159-20.796
			C428.871,223.553,423.184,167.558,383.813,128.187z M384.979,243.887c-10.413,10.412-24.376,15.917-40.381,15.917
			c-22.037,0-45.196-10.52-63.539-28.863c-32.766-32.767-38.453-78.414-12.945-103.921c10.413-10.412,24.377-15.917,40.381-15.917
			c22.037,0,45.196,10.52,63.539,28.863C404.8,172.732,410.486,218.379,384.979,243.887z"/>
	</g>
</g>
<g>
	<g>
		<path d="M378.759,182.385c-2.329-10.972-8.675-22.078-17.872-31.273c-11.798-11.798-26.821-18.842-40.19-18.842
			c-8.617,0-16.029,2.857-21.434,8.262c-7.2,7.2-9.857,18.263-7.292,30.351c2.329,10.972,8.675,22.078,17.872,31.275
			c11.798,11.798,26.823,18.841,40.19,18.841c8.617,0.001,16.028-2.856,21.434-8.262
			C378.667,205.536,381.324,194.474,378.759,182.385z M359.688,200.957c-2.797,2.796-6.794,3.384-9.656,3.384
			c-8.912,0-19.798-5.349-28.411-13.963c-6.844-6.843-11.712-15.21-13.355-22.953c-0.807-3.801-1.519-10.819,2.776-15.113
			c2.797-2.796,6.794-3.384,9.656-3.384c8.912,0,19.798,5.35,28.411,13.963c6.844,6.844,11.712,15.21,13.355,22.953
			C363.272,189.646,363.984,196.663,359.688,200.957z"/>
	</g>
</g>
<g>
	<g>
		<path d="M402.71,109.29c-26.416-26.416-60.773-41.566-94.261-41.566c-27.336,0-52.553,10.165-71.009,28.62
			c-32.539,32.54-36.981,82.428-15.154,126.439l-39.347,39.347c-3.253,3.253-3.253,8.527,0,11.778c3.253,3.253,8.527,3.253,11.778,0
			l36.168-36.168c0.683,1.037,1.381,2.07,2.096,3.097c0.026,0.037,0.05,0.073,0.076,0.109c7.728,11.135,17.007,21.17,27.392,29.872
			c0.104,0.088,0.208,0.174,0.312,0.261c4.341,3.617,8.843,6.973,13.498,10.034l-20.64,20.641h-18.105
			c-4.6,0-8.329,3.729-8.329,8.329v18.105l-19.147,19.145h-18.105c-4.6,0-8.329,3.729-8.329,8.329v18.105l-16.367,16.368
			l-40.393,2.238c-1.93,0.104-3.191-0.858-3.775-1.443c-0.584-0.584-1.549-1.852-1.443-3.775l2.238-40.393l49.295-49.296
			c3.253-3.253,3.253-8.527,0-11.778c-3.253-3.253-8.527-3.253-11.778,0l-51.547,51.547c-1.449,1.449-2.313,3.382-2.428,5.429
			l-2.413,43.57c-0.339,6.129,1.956,12.134,6.297,16.475c4.059,4.059,9.574,6.329,15.284,6.329c0.395,0,0.793-0.011,1.19-0.032
			l43.57-2.413c2.047-0.114,3.979-0.977,5.429-2.428l21.058-21.058c1.563-1.563,2.44-3.68,2.44-5.889v-13.226h13.226
			c2.209,0,4.327-0.877,5.889-2.44l24.025-24.025c1.563-1.561,2.44-3.68,2.44-5.889v-13.226h13.226c2.209,0,4.328-0.877,5.889-2.44
			l26.297-26.297c17.712,8.776,36.686,13.506,55.392,13.506c27.336,0,52.553-10.165,71.009-28.62
			C458.364,231.853,452.677,159.257,402.71,109.29z M403.877,262.783c-15.532,15.532-36.013,23.742-59.231,23.742
			c-25.097,0-49.477-9.866-69.209-25.038c-0.693-0.533-1.388-1.067-2.066-1.62c-3.864-3.095-7.683-6.5-11.209-10.029
			c-8.219-8.219-15.381-17.442-21.197-27.508c-22.76-39.388-20.736-85.221,8.251-114.206c15.532-15.532,36.013-23.742,59.231-23.742
			c29.105,0,59.168,13.372,82.483,36.687C434.293,164.431,439.98,226.679,403.877,262.783z"/>
	</g>
</g>
<g>
</g>
<g>
</g>
<g>
</g>
<g>
</g>
<g>
</g>
<g>
</g>
<g>
</g>
<g>
</g>
<g>
</g>
<g>
</g>
<g>
</g>
<g>
</g>
<g>
</g>
<g>
</g>
<g>
</g>
</svg>
