<?xml version="1.0" encoding="UTF-8"?>
<svg width="700pt" height="700pt" version="1.1" viewBox="0 0 700 700" xmlns="http://www.w3.org/2000/svg">
 <g>
  <path d="m349.91 36.5c48.195-0.035156 95.316 14.223 135.4 40.977 40.09 26.75 71.34 64.793 89.801 109.31 18.461 44.516 23.301 93.512 13.906 140.78-9.3906 47.27-32.598 90.691-66.676 124.77s-77.5 57.285-124.77 66.676c-47.27 9.3945-96.266 4.5547-140.78-13.906-44.52-18.461-82.562-49.711-109.31-89.801-26.754-40.086-41.012-87.207-40.977-135.4 0.10156-64.523 25.777-126.38 71.402-172s107.48-71.301 172-71.402m0-36.5c-55.406 0-109.57 16.434-155.63 47.219-46.066 30.785-81.965 74.539-103.16 125.73-21.195 51.191-26.73 107.52-15.906 161.86 10.824 54.336 37.52 104.25 76.707 143.41 39.191 39.164 89.117 65.824 143.46 76.613 54.344 10.785 110.67 5.2109 161.84-16.02 51.18-21.227 94.91-57.156 125.66-103.24 30.754-46.086 47.152-100.26 47.113-155.66 0-49.156-12.945-97.445-37.531-140.01s-59.949-77.902-102.53-102.46c-42.578-24.559-90.879-37.473-140.03-37.438z"/>
  <path d="m382.81 279.91c0 18.172-14.734 32.906-32.906 32.906-18.176 0-32.91-14.734-32.91-32.906 0-18.176 14.734-32.91 32.91-32.91 18.172 0 32.906 14.734 32.906 32.91"/>
  <path d="m521.63 279.91c0 18.172-14.734 32.906-32.91 32.906-18.172 0-32.906-14.734-32.906-32.906 0-18.176 14.734-32.91 32.906-32.91 18.176 0 32.91 14.734 32.91 32.91"/>
  <path d="m244 279.91c0 18.172-14.734 32.906-32.91 32.906-18.172 0-32.906-14.734-32.906-32.906 0-18.176 14.734-32.91 32.906-32.91 18.176 0 32.91 14.734 32.91 32.91"/>
 </g>
</svg>
