<?xml version="1.0" encoding="iso-8859-1"?>
<!-- Generator: Adobe Illustrator 19.0.0, SVG Export Plug-In . SVG Version: 6.00 Build 0)  -->
<svg version="1.1" id="Layer_1" xmlns="http://www.w3.org/2000/svg" xmlns:xlink="http://www.w3.org/1999/xlink" x="0px" y="0px"
	 viewBox="0 0 512 512" style="enable-background:new 0 0 512 512;" xml:space="preserve">
<g>
	<g>
		<g>
			<path d="M3.209,168.798l26.001,20.779l-11.546,29.15c-1.306,3.319-0.418,7.1,2.236,9.489c1.596,1.442,3.635,2.185,5.7,2.185
				c1.357,0,2.714-0.324,3.959-0.973l30.788-16.145l29.431,16.068c3.098,1.707,6.929,1.306,9.617-0.981
				c2.688-2.287,3.695-5.999,2.517-9.335L91.597,189.73l24.858-21.086c2.731-2.321,3.721-6.093,2.492-9.455
				c-1.237-3.354-4.437-5.589-8.013-5.589H80.7l-13.193-29.124c-1.382-3.055-4.42-5.009-7.774-5.009h-0.017
				c-3.362,0.009-6.4,1.98-7.774,5.043L38.921,153.6H8.534c-3.627,0-6.852,2.295-8.055,5.709
				C-0.716,162.731,0.376,166.537,3.209,168.798z M44.451,170.667c3.362,0,6.409-1.971,7.791-5.043l7.535-16.845l7.654,16.879
				c1.374,3.055,4.42,5.009,7.765,5.009h12.493l-11.605,9.847c-2.697,2.287-3.712,5.999-2.534,9.344l4.881,13.85l-13.901-7.595
				c-1.28-0.691-2.688-1.041-4.096-1.041c-1.357,0-2.722,0.324-3.959,0.973l-14.481,7.586l5.41-13.645
				c1.382-3.49,0.324-7.467-2.611-9.805l-11.904-9.515H44.451z"/>
			<path d="M68.267,341.334c-4.71,0-8.533,3.823-8.533,8.533V384c0,4.71,3.823,8.533,8.533,8.533S76.8,388.711,76.8,384v-34.133
				C76.8,345.157,72.977,341.334,68.267,341.334z"/>
			<path d="M184.517,78.106c2.389,1.843,19.831,14.626,28.467,20.949l-10.581,36.318c-2.278,6.699-0.657,11.034,1.101,13.491
				c4.053,5.649,13.397,6.187,20.045,1.544c3.413-2.372,22.963-16.341,32.299-23.006c9.293,6.639,28.698,20.506,32.265,22.98
				c3.046,2.133,6.741,3.354,10.129,3.354c4.002,0,7.612-1.698,9.89-4.659c1.826-2.364,3.635-6.588,1.886-13.252
				c-1.775-6.758-6.801-27.017-9.208-36.779l26.3-20.412c4.753-3.695,6.835-10.334,5.052-16.119
				c-1.681-5.478-6.366-9.122-12.049-9.489c-3.959-0.324-24.841-2.185-34.739-3.063l-16.06-39.953C266.838,3.84,261.701,0,255.915,0
				c-6.11,0-11.315,4.258-13.107,10.342c-1.485,4.045-10.411,28.74-14.345,39.612l-37.06,3.14
				c-5.734,0.486-10.274,4.113-11.844,9.463C177.912,68.207,179.951,74.607,184.517,78.106z M235.358,66.5
				c3.32-0.282,6.17-2.466,7.305-5.598c0,0,8.772-24.311,13.585-37.615l15.241,37.897c1.203,2.978,3.968,5.035,7.159,5.316
				c0,0,20.574,1.835,32.546,2.884L285.961,88.96c-2.662,2.065-3.857,5.513-3.055,8.789c0,0,5.026,20.395,8.439,34.014
				c-10.906-7.757-30.532-21.794-30.532-21.794c-1.485-1.067-3.217-1.596-4.966-1.596c-1.732,0-3.473,0.529-4.958,1.596
				c0,0-18.202,13.013-29.431,21.001l9.583-32.879c1.007-3.448-0.256-7.151-3.149-9.276c0,0-16.777-12.271-26.496-19.439
				L235.358,66.5z"/>
			<path d="M395.742,237.065l26.001,20.779l-11.546,29.15c-1.314,3.319-0.418,7.1,2.227,9.489c1.613,1.442,3.652,2.185,5.709,2.185
				c1.348,0,2.705-0.324,3.959-0.973l30.788-16.145l29.431,16.068c3.098,1.707,6.929,1.306,9.609-0.981
				c2.697-2.287,3.703-5.999,2.526-9.335l-10.317-29.303l24.849-21.086c2.739-2.321,3.729-6.093,2.492-9.455
				c-1.229-3.354-4.429-5.589-8.004-5.589h-30.234l-13.193-29.124c-1.382-3.055-4.42-5.009-7.774-5.009h-0.017
				c-3.362,0.009-6.4,1.98-7.774,5.043l-13.013,29.09h-30.396c-3.627,0-6.861,2.295-8.047,5.709
				C391.817,230.998,392.909,234.803,395.742,237.065z M436.984,238.934c3.371,0,6.417-1.971,7.791-5.043l7.543-16.845l7.637,16.879
				c1.382,3.055,4.429,5.009,7.774,5.009h12.484l-11.597,9.847c-2.697,2.287-3.712,5.999-2.534,9.344l4.872,13.85l-13.892-7.595
				c-1.28-0.691-2.688-1.041-4.096-1.041c-1.357,0-2.722,0.324-3.959,0.973l-14.473,7.586l5.402-13.645
				c1.382-3.49,0.324-7.467-2.611-9.805l-11.904-9.515H436.984z"/>
			<path d="M503.467,358.4H384c-4.719,0-8.533,3.823-8.533,8.533s3.814,8.533,8.533,8.533h110.933v128
				c0,4.71,3.814,8.533,8.533,8.533c4.719,0,8.533-3.823,8.533-8.533V366.934C512,362.223,508.186,358.4,503.467,358.4z"/>
			<path d="M392.534,409.6c-4.719,0-8.533,3.823-8.533,8.533v34.133c0,4.71,3.814,8.533,8.533,8.533
				c4.719,0,8.533-3.823,8.533-8.533v-34.133C401.067,413.423,397.253,409.6,392.534,409.6z"/>
			<path d="M426.667,409.6c-4.719,0-8.533,3.823-8.533,8.533v34.133c0,4.71,3.814,8.533,8.533,8.533s8.533-3.823,8.533-8.533
				v-34.133C435.2,413.423,431.386,409.6,426.667,409.6z"/>
			<path d="M460.8,409.6c-4.719,0-8.533,3.823-8.533,8.533v34.133c0,4.71,3.814,8.533,8.533,8.533c4.719,0,8.533-3.823,8.533-8.533
				v-34.133C469.334,413.423,465.519,409.6,460.8,409.6z"/>
			<path d="M102.4,341.334c-4.71,0-8.533,3.823-8.533,8.533V384c0,4.71,3.823,8.533,8.533,8.533c4.71,0,8.533-3.823,8.533-8.533
				v-34.133C110.934,345.157,107.111,341.334,102.4,341.334z"/>
			<path d="M349.867,204.8H162.134c-4.71,0-8.533,3.823-8.533,8.533v290.133c0,4.71,3.823,8.533,8.533,8.533
				c4.71,0,8.533-3.823,8.533-8.533v-281.6h170.667v281.6c0,4.71,3.814,8.533,8.533,8.533s8.533-3.823,8.533-8.533V213.334
				C358.4,208.623,354.586,204.8,349.867,204.8z"/>
			<path d="M128,290.134H8.534c-4.71,0-8.533,3.823-8.533,8.533v204.8C0,508.177,3.823,512,8.534,512s8.533-3.823,8.533-8.533V307.2
				H128c4.71,0,8.533-3.823,8.533-8.533S132.711,290.134,128,290.134z"/>
			<path d="M256,256c-4.71,0-8.533,3.823-8.533,8.533v34.133c0,4.71,3.823,8.533,8.533,8.533c4.71,0,8.533-3.823,8.533-8.533
				v-34.133C264.534,259.823,260.711,256,256,256z"/>
		</g>
	</g>
</g>
<g>
</g>
<g>
</g>
<g>
</g>
<g>
</g>
<g>
</g>
<g>
</g>
<g>
</g>
<g>
</g>
<g>
</g>
<g>
</g>
<g>
</g>
<g>
</g>
<g>
</g>
<g>
</g>
<g>
</g>
</svg>
