<svg width="19" height="24" viewBox="0 0 19 24" fill="none" xmlns="http://www.w3.org/2000/svg">
<path d="M9.29069 7.22198C8.41469 7.22198 7.05869 6.22598 5.63069 6.26198C3.74669 6.28598 2.01869 7.35397 1.04669 9.04597C-0.909312 12.442 0.542687 17.458 2.45069 20.218C3.38669 21.562 4.49069 23.074 5.95469 23.026C7.35869 22.966 7.88669 22.114 9.59069 22.114C11.2827 22.114 11.7627 23.026 13.2507 22.99C14.7627 22.966 15.7227 21.622 16.6467 20.266C17.7147 18.706 18.1587 17.194 18.1827 17.11C18.1467 17.098 15.2427 15.982 15.2067 12.622C15.1827 9.81397 17.4987 8.46998 17.6067 8.40998C16.2867 6.47798 14.2587 6.26198 13.5507 6.21398C11.7027 6.06998 10.1547 7.22198 9.29069 7.22198ZM12.4107 4.38998C13.1907 3.45398 13.7067 2.14598 13.5627 0.849976C12.4467 0.897976 11.1027 1.59398 10.2987 2.52998C9.57869 3.35798 8.95469 4.68998 9.12269 5.96198C10.3587 6.05798 11.6307 5.32598 12.4107 4.38998Z" fill="black"/>
</svg>
