<svg width="20" height="20" viewBox="0 0 20 20" fill="none" xmlns="http://www.w3.org/2000/svg">
<path d="M1.39734 5.51C2.22935 3.85324 3.50572 2.46051 5.08378 1.48747C6.66184 0.514427 8.47941 -0.000583569 10.3333 4.96231e-07C13.0283 4.96231e-07 15.2923 0.99 17.0233 2.605L14.1563 5.473C13.1193 4.482 11.8013 3.977 10.3333 3.977C7.72834 3.977 5.52334 5.737 4.73834 8.1C4.53834 8.7 4.42434 9.34 4.42434 10C4.42434 10.66 4.53834 11.3 4.73834 11.9C5.52434 14.264 7.72834 16.023 10.3333 16.023C11.6783 16.023 12.8233 15.668 13.7193 15.068C14.2388 14.726 14.6835 14.2822 15.0265 13.7635C15.3696 13.2448 15.6039 12.6619 15.7153 12.05H10.3333V8.182H19.7513C19.8693 8.836 19.9333 9.518 19.9333 10.227C19.9333 13.273 18.8433 15.837 16.9513 17.577C15.2973 19.105 13.0333 20 10.3333 20C9.01998 20.0005 7.71938 19.7422 6.50589 19.2399C5.29239 18.7375 4.18979 18.0009 3.2611 17.0722C2.33241 16.1436 1.59584 15.041 1.09348 13.8275C0.591117 12.614 0.332819 11.3134 0.333344 10C0.333344 8.386 0.719344 6.86 1.39734 5.51Z" fill="#E2535B"/>
</svg>
