<svg width="14" height="15" viewBox="0 0 14 15" fill="none" xmlns="http://www.w3.org/2000/svg">
<path d="M3.25 3V0.75C3.25 0.551088 3.32902 0.360322 3.46967 0.21967C3.61032 0.0790176 3.80109 0 4 0H13C13.1989 0 13.3897 0.0790176 13.5303 0.21967C13.671 0.360322 13.75 0.551088 13.75 0.75V11.25C13.75 11.4489 13.671 11.6397 13.5303 11.7803C13.3897 11.921 13.1989 12 13 12H10.75V14.25C10.75 14.664 10.4125 15 9.99475 15H1.00525C0.906345 15.0006 0.808298 14.9816 0.716742 14.9442C0.625186 14.9068 0.541925 14.8517 0.471744 14.782C0.401563 14.7123 0.345845 14.6294 0.307791 14.5381C0.269737 14.4468 0.250097 14.3489 0.25 14.25L0.25225 3.75C0.25225 3.336 0.58975 3 1.0075 3H3.25ZM1.75225 4.5L1.75 13.5H9.25V4.5H1.75225ZM4.75 3H10.75V10.5H12.25V1.5H4.75V3Z" fill="#A79F97"/>
</svg>
