<svg width="58" height="63" viewBox="0 0 58 63" fill="none" xmlns="http://www.w3.org/2000/svg">
<path fill-rule="evenodd" clip-rule="evenodd" d="M31.7903 36.9462C30.7198 37.1847 29.6178 37.3292 28.5838 37.6773C23.3769 39.43 20.5159 45.1858 22.2549 50.4094C22.4239 50.9167 22.8311 51.4697 23.2832 51.7374C27.8638 54.448 32.6849 56.6406 38.0196 57.1979C42.8964 57.7074 47.5024 56.9257 51.2432 53.2597C52.345 52.1799 52.4664 51.0915 52.0056 49.7709C51.1867 47.4247 49.4976 45.6993 47.8517 43.9525C46.7294 42.7611 45.6024 41.564 44.3788 40.4819C42.5874 38.8974 42.0594 36.9451 42.9069 34.8178C44.1011 31.8212 45.5415 28.9234 46.8928 25.991C47.1544 25.4237 47.4807 24.885 47.7958 24.3439C48.2829 23.5066 48.9576 23.0538 49.9831 23.2396C49.9599 23.3738 49.9618 23.4341 49.9466 23.439C47.7501 24.1315 47.318 25.1789 48.6893 27.0855C49.678 28.4603 50.9286 29.6467 52.0715 30.9089C53.3788 32.3529 54.7731 33.7252 55.9907 35.2411C57.9691 37.7041 58.4469 40.4595 56.9875 43.3518C55.0453 47.2008 53.1263 51.0681 51.0041 54.8172C48.0647 60.0099 43.3494 62.1579 37.5448 62.2651C34.3229 62.3248 31.6133 60.9952 29.063 59.2329C26.4532 57.4295 24.282 55.1732 22.7032 52.4119C18.9243 45.8017 23.7018 37.0522 31.2075 36.7778C31.4083 36.7705 31.6104 36.8013 31.8118 36.8143C31.8047 36.858 31.7976 36.902 31.7903 36.9462ZM45.7647 29.2635C44.1397 32.5158 44.4424 34.5148 46.7709 36.8695C48.2147 38.3294 49.6701 39.7799 51.0577 41.2926C52.6584 43.0369 54.1447 44.8712 54.5884 47.3705C54.945 46.6195 55.3003 45.8656 55.4739 45.0716C56.0706 42.3424 54.8307 40.1686 53.1745 38.2111C51.9628 36.7791 50.571 35.5022 49.2956 34.1223C47.9595 32.6767 46.3499 31.4287 45.7647 29.2635Z" fill="#FF5367"/>
<path fill-rule="evenodd" clip-rule="evenodd" d="M11.054 34.9297C8.85066 33.0055 7.62411 30.6122 9.6685 27.6145C10.4438 26.4777 10.6643 24.6453 12.7316 25.0138C12.493 25.0813 12.252 25.1408 12.0165 25.2174C11.0893 25.5188 10.5882 26.2088 10.7909 27.1271C10.9729 27.9502 11.4202 28.7223 11.8078 29.4878C11.9762 29.8203 12.3129 30.0622 12.5309 30.3749C13.8503 32.2691 15.3917 33.3278 17.7814 32.1169C18.3929 31.8072 19.211 31.9026 19.936 31.8285C20.0901 31.8128 20.2516 31.8696 20.4194 32.0055C18.7674 32.3332 17.1157 32.6608 15.2183 33.0373C16.1695 34.0702 17.0424 34.8268 17.6744 35.7496C18.6266 37.1403 19.5477 38.5862 20.2251 40.123C20.8206 41.4737 20.609 42.9238 19.7966 44.2291C19.1532 45.2633 18.676 46.4432 17.868 47.3198C17.2033 48.0407 16.2187 48.6798 15.2749 48.8838C12.9071 49.395 10.483 49.6442 8.07934 49.9852C7.77599 50.0281 7.46137 49.991 6.78832 49.991C7.28153 50.8067 7.50664 51.6302 8.04137 51.9923C12.0745 54.7209 16.384 56.8595 21.2558 57.6011C22.4156 57.7776 23.6067 57.7424 24.7819 57.8245C25.1088 57.8471 25.5244 57.8342 25.7391 58.022C26.8079 58.9577 27.8231 59.9548 28.9337 61.0019C26.9398 62.0985 24.8071 62.541 22.6085 62.7695C16.8006 63.3732 12.6365 60.6574 9.53581 56.0522C8.42171 54.3975 7.64914 52.4985 6.83318 50.6608C6.56759 50.0626 6.20248 49.9789 5.6907 49.8321C4.37026 49.453 2.97659 49.1711 1.78947 48.5228C0.0225567 47.5579 -0.28747 46.0118 0.652214 44.2478C1.1425 43.3272 1.64802 42.4145 2.17294 41.5133C2.69619 40.6151 3.54553 40.3441 4.69302 40.8007C4.49773 40.8118 4.27367 40.7642 4.11239 40.8444C3.55513 41.1215 2.80802 41.32 2.53951 41.7847C2.30354 42.1933 2.46085 42.9979 2.71309 43.4886C3.23029 44.4947 4.42096 45.1736 5.84989 45.5713C6.42426 43.6985 6.7854 41.7263 7.62932 39.9908C8.48138 38.24 9.81225 36.7234 11.054 34.9297ZM11.5556 35.4348C8.36684 38.2086 6.72343 41.6065 6.48997 45.813C10.565 46.7248 14.3788 45.745 18.3078 44.9502C17.5164 40.595 14.1698 38.3345 11.5556 35.4348Z" fill="#FB862C"/>
<path fill-rule="evenodd" clip-rule="evenodd" d="M33.697 23.7378C31.6726 24.3696 31.1429 25.4729 32.1618 27.3615C32.6492 28.2649 33.3512 29.0725 34.0518 29.8348C35.699 31.6272 37.4682 33.3097 39.0699 35.1407C41.547 37.9728 42.1848 41.11 40.3709 44.592C38.4623 48.2566 36.6138 51.9529 34.7299 55.6538C34.163 55.4924 33.8123 55.3927 33.2999 55.2471C36.1469 53.1414 37.2258 50.0511 38.6142 47.168C39.6712 44.9732 39.4736 42.7657 38.1523 40.8017C37.0532 39.1678 35.7013 37.6972 34.3896 36.2186C33.3515 35.0488 32.1829 33.9967 31.1109 32.8555C29.2867 30.9137 29.0793 29.3252 30.3129 26.9816C30.7337 26.1826 31.1819 25.3969 31.65 24.6249C32.118 23.8522 32.7817 23.4586 33.697 23.7378Z" fill="#FF5367"/>
<path fill-rule="evenodd" clip-rule="evenodd" d="M56.902 56.5005C55.9804 57.3927 55.0445 58.2534 54.1605 59.165C52.7333 60.6369 51.5993 60.9062 49.9115 60.0007C51.8925 59.5977 52.9133 58.0564 54.1797 56.836C55.2994 55.7569 55.5913 55.7156 56.902 56.5005Z" fill="#FF5367"/>
<rect x="21" y="7.07101" width="9" height="9" rx="2" transform="rotate(-45 21 7.07101)" fill="#503E9D"/>
<circle cx="19" cy="16" r="5" fill="#503E9D"/>
<circle cx="37" cy="16" r="5" fill="#503E9D"/>
</svg>
